<svg data-v-0dd9719b="" version="1.0" xmlns="http://www.w3.org/2000/svg" xmlns:xlink="http://www.w3.org/1999/xlink" width="100%" height="100%" viewBox="0 0 340.000000 250.000000" preserveAspectRatio="xMidYMid meet" color-interpolation-filters="sRGB" style="margin: auto;"> <rect data-v-0dd9719b="" x="0" y="0" width="100%" height="100%" fill="#ffffff" fill-opacity="1" class="background"></rect> <rect data-v-0dd9719b="" x="0" y="0" width="100%" height="100%" fill="url(#watermark)" fill-opacity="1" class="watermarklayer"></rect> <g data-v-0dd9719b="" fill="#0a0619" class="icon-text-wrapper icon-svg-group iconsvg" transform="translate(48.209999084472656,95)"><g class="iconsvg-imagesvg" transform="translate(0,0)" mask="url(#15cfa83c-f8e5-434d-9c78-0ba5a6f3d4ea)"><g><rect fill="#0a0619" fill-opacity="0" stroke-width="2" x="0" y="0" width="60" height="60" class="image-rect"></rect> <svg filter="url(#colors8391817641)" x="0" y="0" width="60" height="60" filtersec="colorsf300999804" class="image-svg-svg primary" style="overflow: visible;"><svg xmlns:dc="http://purl.org/dc/elements/1.1/" xmlns:cc="http://creativecommons.org/ns#" xmlns:rdf="http://www.w3.org/1999/02/22-rdf-syntax-ns#" xmlns:svg="http://www.w3.org/2000/svg" xmlns="http://www.w3.org/2000/svg" xmlns:sodipodi="http://sodipodi.sourceforge.net/DTD/sodipodi-0.dtd" xmlns:inkscape="http://www.inkscape.org/namespaces/inkscape" viewBox="0 0 95 95" version="1.1" x="0px" y="0px"><g transform="translate(-300.31651,-847.2893)"><path d="m 300.31651,847.2893 0,0.60176 0,94.39824 95,0 0,-95 -95,0 z m 1.20351,1.20351 46.29767,0 0,46.28121 -46.29767,0 0,-46.28121 z m 12.31486,12.31955 0,21.06149 21.06149,0 0,-21.06149 -21.06149,0 z m 46.90648,0 21.06148,0 0,21.06149 -21.06148,0 0,-21.06149 z m -12.92367,33.98517 46.29531,0 0,46.28826 -46.29531,0 0,-46.28826 z m -33.98281,12.90016 21.06149,0 0,21.06149 -21.06149,0 0,-21.06149 z m 46.90648,0.002 0,21.06149 21.06148,0 0,-21.06149 -21.06148,0 z"></path></g></svg></svg> <defs><filter id="colors8391817641"><feColorMatrix type="matrix" values="0 0 0 0 0.0390625  0 0 0 0 0.0234375  0 0 0 0 0.09765625  0 0 0 1 0" class="icon-fecolormatrix"></feColorMatrix></filter> <filter id="colorsf300999804"><feColorMatrix type="matrix" values="0 0 0 0 0.99609375  0 0 0 0 0.99609375  0 0 0 0 0.99609375  0 0 0 1 0" class="icon-fecolormatrix"></feColorMatrix></filter> <filter id="colorsb942169174"><feColorMatrix type="matrix" values="0 0 0 0 0  0 0 0 0 0  0 0 0 0 0  0 0 0 1 0" class="icon-fecolormatrix"></feColorMatrix></filter></defs></g><rect v-gra="id" width="72" height="72" transform="translate(-6, -6)" style="pointer-events:none;" fill="url(#6l3xA9QwUQFZKlwXHQkkQ)"></rect></g> <g transform="translate(67,1.71875)"><g data-gra="path-name" fill-rule="" class="tp-name iconsvg-namesvg" transform="translate(0,0)"><g transform="scale(1)"><g><path d="M5.62 4.61L5.62 4.61Q3.12 1.62 1.62 0.88L1.62 0.88Q5.09-4.61 5.09-17.38L5.09-17.38 5.09-29.54 23.13-29.54Q22.91-33.36 22.91-36.52L22.91-36.52 28.79-36.52 28.79-35.16Q28.79-32.44 28.92-29.54L28.92-29.54 36.61-29.54Q33.01-32.7 29.5-34.59L29.5-34.59 31.91-37Q37.26-34.24 40.12-32L40.12-32 37.83-29.54 42.93-29.54 42.93-26.07 29.1-26.07Q29.8-17.69 30.9-13.43L30.9-13.43Q32.74-16.33 34.76-22.82L34.76-22.82 40.25-21.51Q37.7-13.83 32.61-7.2L32.61-7.2Q34.06-3.69 35.22-2.22 36.39-0.75 37.04-0.75L37.04-0.75Q37.97-0.75 38.23-10.05L38.23-10.05Q40.6-7.64 41.5-7.09 42.4-6.54 43.23-6.19L43.23-6.19Q42.88-1.32 41.54 0.79 40.2 2.9 36.74 2.9L36.74 2.9Q33.71 2.9 31.65 1.01 29.58-0.88 28.71-2.68L28.71-2.68Q26.16 0 20.32 3.56L20.32 3.56Q19.31 2.02 17.6 0.04L17.6 0.04Q22.38-2.55 26.64-7.46L26.64-7.46Q24.18-15.58 23.39-26.07L23.39-26.07 10.93-26.07 10.93-20.23 21.95-20.23Q21.95-6.45 20.67-4.94 19.4-3.42 17.16-3.25L17.16-3.25Q16.11-3.12 14.31-3.12L14.31-3.12Q12.86-3.12 10.97-3.2L10.97-3.2Q10.93-4.04 10.62-5.18 10.31-6.32 10.23-6.5L10.23-6.5Q13.21-6.23 14.92-6.23L14.92-6.23Q15.14-6.23 15.36-6.45L15.36-6.45Q16.2-7.46 16.37-17.03L16.37-17.03 10.93-17.03 10.93-16.59Q10.93-11.72 10.03-6.32 9.13-0.92 5.62 4.61ZM60.26-28.71L60.26-23.57 59.87-23.57Q61.4-25.46 63.34-28.71L63.34-28.71 60.26-28.71ZM56.27-9.35L63.38-9.35 63.38-13.47 56.27-13.47 56.27-9.35ZM56.27-2.19L63.38-2.19 63.38-6.67 56.27-6.67 56.27-2.19ZM56.27 0.61L56.27 3.03 51 3.03 51-10.49 48.28-8.95Q47.53-10.45 46.17-12.33L46.17-12.33Q51.7-15.1 57.28-20.54L57.28-20.54 46.7-20.54 46.7-23.57 54.91-23.57 54.91-28.71 48.63-28.71 48.63-31.69 54.91-31.69 54.91-36.21 60.26-36.21 60.26-31.69 65.31-31.69 65.31-32.17 65.27-32.13Q65.27-32.26 66.41-35.16L66.41-35.16 71.32-33.71Q69.44-29.06 65.57-23.57L65.57-23.57 70.58-23.57 70.58-20.54 63.12-20.54Q61.67-18.87 58.95-16.24L58.95-16.24 68.82-16.24 68.82 2.41 63.38 2.41 63.38 0.61 56.27 0.61ZM76.24-30.81L76.24 3.2 70.67 3.2 70.67-34.1 83.88-34.1 85.02-34.41 88.31-32.35Q85.9-26.47 82.43-19.4L82.43-19.4Q85.85-16.11 86.84-13.67 87.83-11.24 87.83-8.87L87.83-8.87Q87.83-5.18 85.59-3.6L85.59-3.6Q83.35-2.28 79.75-2.28L79.75-2.28Q78.52-2.28 76.99-2.37L76.99-2.37Q76.94-3.12 76.61-4.37 76.28-5.62 76.2-5.79L76.2-5.79Q77.95-5.62 79.09-5.62L79.09-5.62Q80.54-5.62 81.11-5.97L81.11-5.97Q82.34-6.58 82.34-9.66L82.34-9.66Q82.34-11.85 81.11-14.4 79.88-16.94 77.21-19.31L77.21-19.31Q79.53-24.36 81.81-30.81L81.81-30.81 76.24-30.81ZM101.83 3.47L101.83 3.47Q101.04 2.19 99.63 0.48L99.63 0.48Q107.93-1.62 110.91-4.96L110.91-4.96Q113.11-7.42 113.11-11.1L113.11-11.1 113.11-14.53 118.95-14.53 118.95-11.06Q118.95-9.57 118.49-7.81 118.02-6.06 116.44-4.15 114.86-2.24 111.57-0.35 108.28 1.54 101.83 3.47ZM132.03 0.7L129.17 3.42Q122.11-0.7 116.36-2.85L116.36-2.85 118.99-5.05Q125.71-2.5 132.03 0.7L132.03 0.7ZM101.13-27.3L112.58-27.3 112.85-31.47Q107.01-30.99 101.13-30.77L101.13-30.77 101.13-27.3ZM95.64 3.56L95.64 3.56Q93.31 1.4 91.43 0.61L91.43 0.61Q95.55-6.23 95.55-21.55L95.55-21.55 95.55-33.45Q115.61-34.24 126.63-36.74L126.63-36.74 129.52-33.8Q124.61-32.74 118.81-32.08L118.81-32.08 118.33-27.3 132.73-27.3 132.73-24.23 117.98-24.23Q117.76-22.03 117.45-19.88L117.45-19.88 129.7-19.88 129.7-5.09 123.82-5.09 123.82-16.68 108.06-16.68 108.06-5.31 102.4-5.31 102.4-19.88 111.88-19.88Q112.14-21.73 112.36-24.23L112.36-24.23 101.13-24.23 101.13-21.55Q101.13-18.04 100.78-13.72 100.42-9.39 99.39-5.18 98.36-0.97 95.64 3.56ZM141.73 2.02L141.73 2.02 137.07 0.13Q137.73-0.75 138.92-2.94 140.1-5.14 141.11-7.59L141.11-7.59 144.62-6.32Q145.85-6.06 145.85-5.88L145.85-5.88Q144.14-1.98 141.73 2.02ZM160.42-26.51L160.42-24.18 145.28-24.18 145.28-26.51 160.42-26.51ZM150.46-14.57L154.98-14.57 154.98-19.09 150.46-19.09 150.46-14.57ZM140.28-7.94L140.28-7.94Q138-10.71 136.85-11.28L136.85-11.28Q137.95-12.82 138.79-15.56 139.62-18.3 139.86-21.05 140.1-23.79 140.1-26.03L140.1-26.03 140.1-32.26 159.9-32.26Q159.77-34.63 159.72-36.52L159.72-36.52 165.12-36.52Q165.12-34.59 165.25-32.26L165.25-32.26 170.17-32.26Q167.36-34.46 166.09-35.2L166.09-35.2 168.41-36.96Q172.58-34.81 173.9-33.66L173.9-33.66 172.14-32.26 177.63-32.26 177.63-29.5 165.47-29.5Q166.26-23.31 167.18-20.76L167.18-20.76Q168.72-22.69 170.43-27.52L170.43-27.52 175.39-26.29Q173.42-21.11 169.07-16.11L169.07-16.11Q171.13-12.77 172.63-12.77L172.63-12.77Q172.63-12.99 172.98-14.18 173.33-15.36 173.5-19.31L173.5-19.31Q175.74-17.38 176.51-16.99 177.28-16.59 178.2-16.33L178.2-16.33Q177.89-12.86 176.75-11.24 175.61-9.61 172.45-9.61L172.45-9.61Q167.71-9.61 165.65-12.68L165.65-12.68Q164.64-11.85 161.3-9.61L161.3-9.61Q160.25-10.8 159.15-11.94L159.15-11.94Q159.2-11.94 159.77-11.5L159.77-11.5 159.77-12.25 145.63-12.25 145.63-21.42 159.77-21.42 159.77-13.17Q160.86-13.78 163.41-16.28L163.41-16.28Q160.95-21.99 160.2-29.5L160.2-29.5 145.41-29.5 145.41-25.98Q145.41-23.53 145.08-20.48 144.75-17.43 143.86-14.48 142.96-11.54 140.28-7.94ZM162.88-4.39L158.67-2.15Q156.34-5.93 153.36-8.73L153.36-8.73 157.04-10.49Q161.65-6.14 162.88-4.39L162.88-4.39ZM162.93 2.72L162.93 2.72 153.75 2.72Q149.14 2.72 147.59 1.71 146.03 0.7 146.03-1.54L146.03-1.54 146.03-8.16 151.69-8.16 151.69-1.62Q151.69-0.31 152.06-0.13 152.44 0.04 154.06 0.04L154.06 0.04 162.66 0.04Q163.67 0.04 164.16-0.86 164.64-1.76 164.81-5.88L164.81-5.88Q167.01-4.43 167.95-4.13 168.9-3.82 170.08-3.56L170.08-3.56Q169.86-0.26 168.48 1.23 167.1 2.72 162.93 2.72ZM177.37-0.48L172.23 1.32Q170.96-2.41 168.06-6.89L168.06-6.89 172.63-8.34Q176.31-2.98 177.37-0.48L177.37-0.48Z" transform="translate(-1.6200000047683716, 37)"></path></g> <!----> <!----> <!----> <!----> <!----> <!----> <!----></g></g> <g data-gra="path-slogan" fill-rule="" class="tp-slogan iconsvg-slogansvg" fill="#0a0619" transform="translate(5,47.61000061035156)"><rect x="0" height="1" y="3.9750003814697266" width="21.134998321533203"></rect> <rect height="1" y="3.9750003814697266" width="21.134998321533203" x="145.44500350952148"></rect> <g transform="translate(24.134998321533203,0)"><g transform="scale(1)"><path d="M8.06-6.05L8.06-6.05L6.94-6.05Q6.52-7.78 4.55-7.83L4.55-7.83Q1.83-7.69 1.73-4.36L1.73-4.36Q1.73-0.80 4.59-0.80L4.59-0.80Q6.56-0.84 7.03-3.19L7.03-3.19L8.16-3.19Q7.64 0.05 4.36 0.14L4.36 0.14Q0.61 0 0.52-4.31L0.52-4.31Q0.70-8.63 4.55-8.81L4.55-8.81Q7.59-8.72 8.06-6.05ZM10.69-5.06L15.19-5.06L15.19-8.58L16.36-8.58L16.36 0L15.19 0L15.19-3.98L10.69-3.98L10.69 0L9.52 0L9.52-8.58L10.69-8.58L10.69-5.06ZM19.45-1.03L24.61-1.03L24.61 0L18.28 0L18.28-8.58L24.52-8.58L24.52-7.59L19.45-7.59L19.45-4.92L24.14-4.92L24.14-3.89L19.45-3.89L19.45-1.03ZM27.52-8.58L31.83-1.64L31.83-8.58L32.95-8.58L32.95 0L31.64 0L27.28-6.94L27.23-6.94L27.23 0L26.11 0L26.11-8.58L27.52-8.58ZM41.16-3.61L38.53-3.61L38.53-4.59L42.28-4.59L42.28 0L41.53 0L41.25-1.08Q40.27 0.09 38.44 0.14L38.44 0.14Q36.70 0.14 35.77-0.75L35.77-0.75Q34.36-2.06 34.41-4.36L34.41-4.36Q34.73-8.63 38.48-8.81L38.48-8.81Q41.67-8.63 42.14-6L42.14-6L41.02-6Q40.55-7.78 38.44-7.83L38.44-7.83Q35.77-7.64 35.63-4.31L35.63-4.31Q35.63-0.75 38.48-0.75L38.48-0.75Q39.52-0.75 40.27-1.31L40.27-1.31Q41.20-2.06 41.16-3.61L41.16-3.61ZM47.58 0L44.11 0L44.11-8.58L47.63-8.58Q51.09-8.39 51.23-4.41L51.23-4.41Q51.05-0.09 47.58 0L47.58 0ZM47.44-7.64L45.28-7.64L45.28-0.98L47.53-0.98Q49.97-1.13 50.06-4.31L50.06-4.31Q50.02-7.55 47.44-7.64L47.44-7.64ZM58.36-3.19L58.36-8.58L59.53-8.58L59.53-3.05Q59.39 0.05 56.02 0.14L56.02 0.14Q52.88 0.05 52.73-2.86L52.73-2.86L52.73-8.58L53.91-8.58L53.91-3.19Q53.95-0.84 56.06-0.80L56.06-0.80Q58.36-0.84 58.36-3.19L58.36-3.19ZM66.84-7.59L63.94-7.59L63.94-8.58L70.88-8.58L70.88-7.59L67.97-7.59L67.97 0L66.84 0L66.84-7.59ZM73.22-1.03L78.38-1.03L78.38 0L72.05 0L72.05-8.58L78.28-8.58L78.28-7.59L73.22-7.59L73.22-4.92L77.91-4.92L77.91-3.89L73.22-3.89L73.22-1.03ZM86.63-8.58L83.72-4.41L86.77 0L85.31 0L82.97-3.52L80.63 0L79.22 0L82.31-4.41L79.41-8.58L80.86-8.58L83.02-5.30L85.22-8.58L86.63-8.58ZM90.05-7.59L87.14-7.59L87.14-8.58L94.08-8.58L94.08-7.59L91.17-7.59L91.17 0L90.05 0L90.05-7.59ZM100.78-3.19L100.78-8.58L101.95-8.58L101.95-3.05Q101.81 0.05 98.44 0.14L98.44 0.14Q95.30 0.05 95.16-2.86L95.16-2.86L95.16-8.58L96.33-8.58L96.33-3.19Q96.38-0.84 98.48-0.80L98.48-0.80Q100.78-0.84 100.78-3.19L100.78-3.19ZM107.86-3.70L105.05-3.70L105.05 0L103.88 0L103.88-8.58L107.86-8.58Q110.72-8.58 110.72-6.28L110.72-6.28Q110.72-4.88 109.50-4.22L109.50-4.22Q110.53-3.94 110.53-2.58L110.53-2.58L110.63-1.03Q110.58-0.38 111.05-0.19L111.05-0.19L111.05 0L109.59 0Q109.45-0.61 109.41-2.16L109.41-2.16Q109.45-3.70 107.86-3.70L107.86-3.70ZM107.95-7.64L105.05-7.64L105.05-4.69L107.77-4.69Q109.50-4.69 109.50-6.19L109.50-6.19Q109.50-7.64 107.95-7.64L107.95-7.64ZM113.67-1.03L118.83-1.03L118.83 0L112.50 0L112.50-8.58L118.73-8.58L118.73-7.59L113.67-7.59L113.67-4.92L118.36-4.92L118.36-3.89L113.67-3.89L113.67-1.03Z" transform="translate(-0.515625, 8.8125)"></path></g></g></g></g></g><defs v-gra="od"></defs><defs v-gra="id"><filter id="cf449a05-63f7-40be-a9a9-b0b22eac55b8" filterUnits="userSpaceOnUse"><feColorMatrix type="matrix" values="0 0 0 0 0.99609375  0 0 0 0 0.99609375  0 0 0 0 0.99609375  0 0 0 1 0"></feColorMatrix></filter><linearGradient x1="0" y1="1" x2="0" y2="0" id="6l3xA9QwUQFZKlwXHQkkQ"><stop offset="0%" stop-color="#4cf37b"></stop><stop offset="50%" stop-color="#2340fe"></stop><stop offset="100%" stop-color="#f001ff"></stop></linearGradient><filter id="42443b3f1de60f6b6fd3b6a9844b4764" filterUnits="objectBoundingBox"><feColorMatrix type="matrix" values="0 0 0 0 0.99609375  0 0 0 0 0.99609375  0 0 0 0 0.99609375  0 0 0 1 0"></feColorMatrix></filter></defs><mask v-gra="im" id="15cfa83c-f8e5-434d-9c78-0ba5a6f3d4ea"><g class="iconsvg-imagesvg" filter="url(#cf449a05-63f7-40be-a9a9-b0b22eac55b8)"><g><rect fill="#0a0619" fill-opacity="0" stroke-width="2" x="0" y="0" width="60" height="60" class="image-rect"></rect> <svg x="0" y="0" width="60" height="60" filtersec="colorsf300999804" class="image-svg-svg primary" style="overflow: visible;"><svg xmlns:dc="http://purl.org/dc/elements/1.1/" xmlns:cc="http://creativecommons.org/ns#" xmlns:rdf="http://www.w3.org/1999/02/22-rdf-syntax-ns#" xmlns:svg="http://www.w3.org/2000/svg" xmlns="http://www.w3.org/2000/svg" xmlns:sodipodi="http://sodipodi.sourceforge.net/DTD/sodipodi-0.dtd" xmlns:inkscape="http://www.inkscape.org/namespaces/inkscape" viewBox="0 0 95 95" version="1.1" x="0px" y="0px"><g transform="translate(-300.31651,-847.2893)"><path d="m 300.31651,847.2893 0,0.60176 0,94.39824 95,0 0,-95 -95,0 z m 1.20351,1.20351 46.29767,0 0,46.28121 -46.29767,0 0,-46.28121 z m 12.31486,12.31955 0,21.06149 21.06149,0 0,-21.06149 -21.06149,0 z m 46.90648,0 21.06148,0 0,21.06149 -21.06148,0 0,-21.06149 z m -12.92367,33.98517 46.29531,0 0,46.28826 -46.29531,0 0,-46.28826 z m -33.98281,12.90016 21.06149,0 0,21.06149 -21.06149,0 0,-21.06149 z m 46.90648,0.002 0,21.06149 21.06148,0 0,-21.06149 -21.06148,0 z"></path></g></svg></svg> <defs><filter id="colors8391817641"><feColorMatrix type="matrix" values="0 0 0 0 0.0390625  0 0 0 0 0.0234375  0 0 0 0 0.09765625  0 0 0 1 0" class="icon-fecolormatrix"></feColorMatrix></filter> <filter id="colorsf300999804"><feColorMatrix type="matrix" values="0 0 0 0 0.99609375  0 0 0 0 0.99609375  0 0 0 0 0.99609375  0 0 0 1 0" class="icon-fecolormatrix"></feColorMatrix></filter> <filter id="colorsb942169174"><feColorMatrix type="matrix" values="0 0 0 0 0  0 0 0 0 0  0 0 0 0 0  0 0 0 1 0" class="icon-fecolormatrix"></feColorMatrix></filter></defs></g></g></mask></svg>